<svg width="40" height="40" viewBox="0 0 40 40" fill="none" xmlns="http://www.w3.org/2000/svg">
<path fill-rule="evenodd" clip-rule="evenodd" d="M17.0024 3.33325C17.9228 3.33325 18.669 4.07944 18.669 4.99992V12.0166L17.5574 12.4083C17.3723 12.4744 17.2042 12.5807 17.065 12.7195C16.9258 12.8582 16.819 13.026 16.7523 13.2109C16.6856 13.3957 16.6605 13.5931 16.6789 13.7887C16.6973 13.9844 16.7588 14.1736 16.8589 14.3427C16.959 14.5118 17.0952 14.6568 17.2578 14.7671C17.4205 14.8774 17.6055 14.9504 17.7996 14.9809C17.9938 15.0114 18.1923 14.9986 18.3809 14.9434C18.5695 14.8882 18.7436 14.7919 18.8907 14.6616L20.0024 13.6666L21.114 14.6616C21.2609 14.7926 21.435 14.8895 21.6238 14.9452C21.8126 15.001 22.0114 15.0142 22.2059 14.984C22.4004 14.9539 22.5859 14.881 22.7489 14.7706C22.9119 14.6603 23.0484 14.5152 23.1487 14.3458C23.249 14.1765 23.3106 13.987 23.329 13.791C23.3474 13.595 23.3221 13.3974 23.2551 13.2123C23.188 13.0272 23.0808 12.8593 22.9412 12.7206C22.8015 12.5818 22.6329 12.4757 22.4474 12.4099L21.3357 12.0166V4.99992C21.3357 4.07945 22.0819 3.33325 23.0024 3.33325C23.9228 3.33325 24.669 4.07944 24.669 4.99992V5.73992C27.6731 6.72363 30.2899 8.63095 32.1459 11.1898C34.0019 13.7486 35.0023 16.8283 35.0046 19.9893C35.0068 23.1504 34.0106 26.2315 32.1582 28.7929C30.3058 31.3543 27.6918 33.2653 24.689 34.2533L24.669 34.1899V34.9999C24.669 35.9204 23.9228 36.6666 23.0024 36.6666C22.0819 36.6666 21.3357 35.9204 21.3357 34.9999V27.9833L22.4474 27.5916C22.6329 27.5258 22.8015 27.4197 22.9412 27.2809C23.0808 27.1422 23.188 26.9743 23.2551 26.7892C23.3221 26.6041 23.3474 26.4065 23.329 26.2105C23.3106 26.0145 23.249 25.825 23.1487 25.6557C23.0484 25.4863 22.9119 25.3412 22.7489 25.2309C22.5859 25.1205 22.4004 25.0476 22.2059 25.0175C22.0114 24.9873 21.8126 25.0005 21.6238 25.0563C21.435 25.112 21.2609 25.2089 21.114 25.3399L20.0024 26.3333L18.8907 25.3383C18.7438 25.2072 18.5697 25.1104 18.3809 25.0546C18.1921 24.9989 17.9933 24.9856 17.7988 25.0158C17.6043 25.046 17.4189 25.1189 17.2558 25.2292C17.0928 25.3395 16.9563 25.4846 16.856 25.654C16.7557 25.8234 16.6941 26.0129 16.6757 26.2088C16.6574 26.4048 16.6826 26.6025 16.7497 26.7875C16.8167 26.9726 16.9239 27.1405 17.0636 27.2793C17.2032 27.418 17.3718 27.5241 17.5574 27.5899L18.669 27.9833V34.9999C18.669 35.9204 17.9228 36.6666 17.0024 36.6666C16.0819 36.6666 15.3357 35.9204 15.3357 34.9999V34.2599C12.3298 33.2757 9.71185 31.3668 7.85566 28.8058C5.99947 26.2448 5 23.1628 5 19.9999C5 16.837 5.99947 13.755 7.85566 11.194C9.71185 8.63308 12.3298 6.72416 15.3357 5.73992V4.99992C15.3357 4.07944 16.0819 3.33325 17.0024 3.33325ZM15.3357 30.6966V30.1632C14.3738 29.4945 13.6987 28.4884 13.4443 27.3449C13.19 26.2013 13.3751 25.0039 13.9628 23.9905C14.5505 22.9771 15.4979 22.2218 16.6168 21.8746C17.7357 21.5275 18.9442 21.6138 20.0024 22.1166C21.0605 21.6138 22.269 21.5275 23.3879 21.8746C24.5068 22.2218 25.4542 22.9771 26.0419 23.9905C26.6297 25.0039 26.8147 26.2013 26.5604 27.3449C26.306 28.4884 25.6309 29.4945 24.669 30.1632V30.6966C26.7507 29.7886 28.5222 28.2928 29.7664 26.3928C31.0105 24.4928 31.6732 22.271 31.6732 19.9999C31.6732 17.7288 31.0105 15.507 29.7664 13.607C28.5222 11.707 26.7507 10.2113 24.669 9.30325V9.83659C25.6309 10.5053 26.306 11.5114 26.5604 12.655C26.8147 13.7985 26.6297 14.9959 26.0419 16.0093C25.4542 17.0228 24.5068 17.778 23.3879 18.1252C22.269 18.4724 21.0605 18.386 20.0024 17.8833C18.9442 18.386 17.7357 18.4724 16.6168 18.1252C15.4979 17.778 14.5505 17.0228 13.9628 16.0093C13.3751 14.9959 13.19 13.7985 13.4443 12.655C13.6987 11.5114 14.3738 10.5053 15.3357 9.83659V9.30325C13.2546 10.2118 11.4837 11.7077 10.2401 13.6077C8.99645 15.5077 8.33405 17.7291 8.33405 19.9999C8.33405 22.2707 8.99645 24.4922 10.2401 26.3921C11.4837 28.2921 13.2546 29.788 15.3357 30.6966Z" fill="#3496CE"/>
</svg>
