<svg width="40" height="40" viewBox="0 0 40 40" fill="none" xmlns="http://www.w3.org/2000/svg">
<path d="M7.90927 36.6666L13.8259 30.7499C14.3476 30.2299 15.1876 30.2549 15.8493 30.5799C16.4173 30.8573 17.0425 30.9977 17.6746 30.9896C18.3067 30.9815 18.928 30.8253 19.4888 30.5335C20.0496 30.2417 20.5341 29.8224 20.9033 29.3093C21.2726 28.7963 21.5164 28.2037 21.6151 27.5793C21.7138 26.9549 21.6647 26.3161 21.4717 25.7141C21.2786 25.1122 20.9471 24.5639 20.5037 24.1133C20.0603 23.6628 19.5174 23.3225 18.9186 23.1199C18.3198 22.9172 17.6818 22.8579 17.0559 22.9466C16.2193 23.0649 15.4126 23.4466 14.7693 24.0899M17.0559 22.9466C17.1446 22.3207 17.0853 21.6827 16.8826 21.0839C16.68 20.4851 16.3397 19.9422 15.8892 19.4988C15.4386 19.0554 14.8903 18.7239 14.2884 18.5309C13.6864 18.3378 13.0476 18.2887 12.4232 18.3874C11.7988 18.4861 11.2063 18.7299 10.6932 19.0992C10.1801 19.4685 9.76084 19.953 9.46901 20.5137C9.17719 21.0745 9.02097 21.6959 9.01291 22.328C9.00485 22.9601 9.14518 23.5852 9.4226 24.1533C9.7476 24.8149 9.7726 25.6549 9.2526 26.1766L3.33594 32.0933M32.0959 3.33325L26.1793 9.24992C25.6576 9.76992 24.8176 9.74492 24.1559 9.41992C23.5879 9.14249 22.9627 9.00217 22.3306 9.01023C21.6986 9.01829 21.0772 9.17451 20.5164 9.46633C19.9556 9.75815 19.4712 10.1774 19.1019 10.6905C18.7326 11.2036 18.4888 11.7961 18.3901 12.4205C18.2914 13.0449 18.3405 13.6837 18.5335 14.2857C18.7266 14.8876 19.0581 15.4359 19.5015 15.8865C19.9449 16.3371 20.4878 16.6773 21.0866 16.88C21.6854 17.0826 22.3234 17.1419 22.9493 17.0533C23.7859 16.9349 24.5926 16.5533 25.2359 15.9099M22.9493 17.0533C22.8606 17.6791 22.9199 18.3171 23.1226 18.9159C23.3252 19.5147 23.6655 20.0576 24.116 20.501C24.5666 20.9444 25.1149 21.2759 25.7168 21.469C26.3188 21.662 26.9576 21.7111 27.582 21.6124C28.2064 21.5137 28.799 21.2699 29.312 20.9007C29.8251 20.5314 30.2444 20.0469 30.5362 19.4861C30.828 18.9254 30.9842 18.304 30.9923 17.6719C31.0004 17.0398 30.86 16.4146 30.5826 15.8466C30.2576 15.1849 30.2326 14.3449 30.7526 13.8233L36.6693 7.90659M26.6693 29.9999V33.3333M30.0026 26.6666H33.3359M13.3359 9.99992V6.66659M10.0026 13.3333H6.66927" stroke="#509FCC" stroke-width="4" stroke-linecap="round" stroke-linejoin="round"/>
</svg>
