<svg width="40" height="40" viewBox="0 0 40 40" fill="none" xmlns="http://www.w3.org/2000/svg">
<path d="M5 27C5 29.1217 5.84285 31.1566 7.34315 32.6569C8.84344 34.1571 10.8783 35 13 35C15.1217 35 17.1566 34.1571 18.6569 32.6569C20.1571 31.1566 21 29.1217 21 27C21 24.8783 20.1571 22.8434 18.6569 21.3431C17.1566 19.8429 15.1217 19 13 19C10.8783 19 8.84344 19.8429 7.34315 21.3431C5.84285 22.8434 5 24.8783 5 27Z" stroke="#3496CE" stroke-width="4" stroke-linecap="round" stroke-linejoin="round"/>
<path d="M23 15.0001C23 16.5918 23.6323 18.1182 24.7578 19.2437C25.8832 20.3692 27.4097 21.0014 29.0013 21.0014C30.593 21.0014 32.1194 20.3692 33.2449 19.2437C34.3704 18.1182 35.0027 16.5918 35.0027 15.0001C35.0027 13.4085 34.3704 11.882 33.2449 10.7565C32.1194 9.63106 30.593 8.99878 29.0013 8.99878C27.4097 8.99878 25.8832 9.63106 24.7578 10.7565C23.6323 11.882 23 13.4085 23 15.0001Z" stroke="#3496CE" stroke-width="4" stroke-linecap="round" stroke-linejoin="round"/>
<path d="M10 27C10 26.2044 10.3161 25.4413 10.8787 24.8787C11.4413 24.3161 12.2044 24 13 24" stroke="#3496CE" stroke-width="4" stroke-linecap="round" stroke-linejoin="round"/>
<path d="M19.948 23.032L24.5293 19M23.5173 12.56L14.8653 8.88533M9 8C9 8.79565 9.31607 9.55871 9.87868 10.1213C10.4413 10.6839 11.2044 11 12 11C12.7956 11 13.5587 10.6839 14.1213 10.1213C14.6839 9.55871 15 8.79565 15 8C15 7.20435 14.6839 6.44129 14.1213 5.87868C13.5587 5.31607 12.7956 5 12 5C11.2044 5 10.4413 5.31607 9.87868 5.87868C9.31607 6.44129 9 7.20435 9 8Z" stroke="#3496CE" stroke-width="4" stroke-linecap="round" stroke-linejoin="round"/>
</svg>
